<mxfile host="app.diagrams.net" modified="2024-03-22T20:36:36.556Z" agent="Mozilla/5.0 (Windows NT 10.0; Win64; x64) AppleWebKit/537.36 (KHTML, like Gecko) Chrome/120.0.0.0 Safari/537.36" version="24.0.8" etag="tFx6n03elbxkQrCNz4SY" type="github">
  <diagram name="Page-1" id="0N7xiwsuFp821j7X7Neb">
    <mxGraphModel>
      <root>
        <mxCell id="0" />
        <mxCell id="1" parent="0" />
      </root>
    </mxGraphModel>
  </diagram>
</mxfile>
